{
  "source": "C:\\Users\\Peter\\Desktop\\stuff\\MIUN\\quantitative_research\\video_compression\\videos\\BVI-HD\\BVI-HD_CDVL_videos\\ORIG\\Typing_1920x1080_60fps.mp4",
  "output": "C:\\Users\\Peter\\Desktop\\stuff\\MIUN\\quantitative_research\\video_compression\\compressed_videos\\BVI-HD\\h264\\8\\Typing_1920x1080_60fps_h264.mp4",
  "codec": "h264",
  "ok": "Input #0, mov,mp4,m4a,3gp,3g2,mj2, from 'C:\\Users\\Peter\\Desktop\\stuff\\MIUN\\quantitative_research\\video_compression\\videos\\BVI-HD\\BVI-HD_CDVL_videos\\ORIG\\Typing_1920x1080_60fps.mp4':\n  Metadata:\n    major_brand     : isom\n    minor_version   : 512\n    compatible_brands: isomiso2avc1mp41\n    encoder         : Lavf54.28.101\n  Duration: 00:00:05.00, start: 0.000000, bitrate: 203453 kb/s\n  Stream #0:0[0x1](und): Video: h264 (High 4:4:4 Predictive) (avc1 / 0x31637661), yuv420p(progressive), 1920x1080, 203448 kb/s, 60 fps, 60 tbr, 60 tbn (default)\n    Metadata:\n      handler_name    : VideoHandler\n      vendor_id       : [0][0][0][0]\n[out#0/mp4 @ 0000020267eb1500] Codec AVOption b:a (set bitrate (in bits/s)) has not been used for any stream. The most likely reason is either wrong type (e.g. a video option with no video streams) or that it is a private option of some decoder which was not actually used for any stream.\nStream mapping:\n  Stream #0:0 -> #0:0 (h264 (native) -> h264 (libx264))\nPress [q] to stop, [?] for help\n[libx264 @ 0000020269c40940] using cpu capabilities: MMX2 SSE2Fast SSSE3 SSE4.2 AVX FMA3 BMI2 AVX2\n[libx264 @ 0000020269c40940] profile High, level 5.0, 4:2:0, 8-bit\n[libx264 @ 0000020269c40940] 264 - core 165 r3222 b35605a - H.264/MPEG-4 AVC codec - Copyleft 2003-2025 - http://www.videolan.org/x264.html - options: cabac=1 ref=5 deblock=1:0:0 analyse=0x3:0x113 me=hex subme=8 psy=1 psy_rd=1.00:0.00 mixed_ref=1 me_range=16 chroma_me=1 trellis=2 8x8dct=1 cqm=0 deadzone=21,11 fast_pskip=1 chroma_qp_offset=-2 threads=18 lookahead_threads=3 sliced_threads=0 nr=0 decimate=1 interlaced=0 bluray_compat=0 constrained_intra=0 bframes=3 b_pyramid=2 b_adapt=1 b_bias=0 direct=3 weightb=1 open_gop=0 weightp=2 keyint=250 keyint_min=25 scenecut=40 intra_refresh=0 rc_lookahead=50 rc=cbr mbtree=1 bitrate=8000 ratetol=1.0 qcomp=0.60 qpmin=0 qpmax=69 qpstep=4 vbv_maxrate=8000 vbv_bufsize=8000 nal_hrd=none filler=0 ip_ratio=1.40 aq=1:1.00\nOutput #0, mp4, to 'C:\\Users\\Peter\\Desktop\\stuff\\MIUN\\quantitative_research\\video_compression\\compressed_videos\\BVI-HD\\h264\\8\\Typing_1920x1080_60fps_h264.mp4':\n  Metadata:\n    major_brand     : isom\n    minor_version   : 512\n    compatible_brands: isomiso2avc1mp41\n    encoder         : Lavf62.3.100\n  Stream #0:0(und): Video: h264 (avc1 / 0x31637661), yuv420p(tv, progressive), 1920x1080, q=2-31, 8000 kb/s, 60 fps, 15360 tbn (default)\n    Metadata:\n      encoder         : Lavc62.11.100 libx264\n      handler_name    : VideoHandler\n      vendor_id       : [0][0][0][0]\n    Side data:\n      cpb: bitrate max/min/avg: 8000000/0/8000000 buffer size: 8000000 vbv_delay: N/A\nframe=    0 fps=0.0 q=0.0 size=       0KiB time=N/A bitrate=N/A speed=N/A elapsed=0:00:00.52    \nframe=    0 fps=0.0 q=0.0 size=       0KiB time=N/A bitrate=N/A speed=N/A elapsed=0:00:01.13    \nframe=    9 fps=5.1 q=28.0 size=       0KiB time=00:00:00.11 bitrate=   3.3kbits/s speed=0.0667x elapsed=0:00:01.74    \nframe=   29 fps= 12 q=25.0 size=     256KiB time=00:00:00.45 bitrate=4661.2kbits/s speed=0.192x elapsed=0:00:02.33    \nframe=   47 fps= 16 q=26.0 size=     512KiB time=00:00:00.71 bitrate=5853.1kbits/s speed=0.251x elapsed=0:00:02.86    \nframe=   72 fps= 21 q=26.0 size=     768KiB time=00:00:01.16 bitrate=5393.0kbits/s speed=0.34x elapsed=0:00:03.42    \nframe=   89 fps= 22 q=27.0 size=    1024KiB time=00:00:01.45 bitrate=5785.5kbits/s speed=0.361x elapsed=0:00:04.02    \nframe=  105 fps= 23 q=27.0 size=    1280KiB time=00:00:01.71 bitrate=6108.4kbits/s speed=0.374x elapsed=0:00:04.58    \nframe=  125 fps= 24 q=26.0 size=    1536KiB time=00:00:02.01 bitrate=6239.6kbits/s speed=0.393x elapsed=0:00:05.12    \nframe=  141 fps= 25 q=26.0 size=    1792KiB time=00:00:02.31 bitrate=6336.9kbits/s speed=0.407x elapsed=0:00:05.69    \nframe=  153 fps= 25 q=26.0 size=    2048KiB time=00:00:02.51 bitrate=6666.6kbits/s speed=0.403x elapsed=0:00:06.24    \nframe=  177 fps= 26 q=26.0 size=    2304KiB time=00:00:02.91 bitrate=6471.3kbits/s speed=0.429x elapsed=0:00:06.79    \nframe=  196 fps= 27 q=26.0 size=    2560KiB time=00:00:03.18 bitrate=6588.0kbits/s speed=0.433x elapsed=0:00:07.35    \nframe=  213 fps= 27 q=26.0 size=    2816KiB time=00:00:03.51 bitrate=6559.9kbits/s speed=0.444x elapsed=0:00:07.91    \nframe=  233 fps= 28 q=27.0 size=    3328KiB time=00:00:03.85 bitrate=7081.4kbits/s speed=0.455x elapsed=0:00:08.46    \nframe=  255 fps= 28 q=27.0 size=    3840KiB time=00:00:04.13 bitrate=7610.7kbits/s speed=0.457x elapsed=0:00:09.03    \nframe=  271 fps= 28 q=27.0 size=    4096KiB time=00:00:04.48 bitrate=7484.3kbits/s speed=0.465x elapsed=0:00:09.64    \n[mp4 @ 0000020267eb1640] Starting second pass: moving the moov atom to the beginning of the file\n[out#0/mp4 @ 0000020267eb1500] video:4554KiB audio:0KiB subtitle:0KiB other streams:0KiB global headers:0KiB muxing overhead: 0.096902%\nframe=  300 fps= 29 q=-1.0 Lsize=    4559KiB time=00:00:04.96 bitrate=7518.9kbits/s speed=0.488x elapsed=0:00:10.17    \n[libx264 @ 0000020269c40940] frame I:2     Avg QP:20.30  size:131776\n[libx264 @ 0000020269c40940] frame P:76    Avg QP:20.93  size: 32744\n[libx264 @ 0000020269c40940] frame B:222   Avg QP:22.63  size:  8606\n[libx264 @ 0000020269c40940] consecutive B-frames:  1.3%  0.0%  0.0% 98.7%\n[libx264 @ 0000020269c40940] mb I  I16..4:  7.4% 90.0%  2.5%\n[libx264 @ 0000020269c40940] mb P  I16..4:  1.8% 13.5%  0.2%  P16..4: 48.8%  8.1%  6.8%  0.0%  0.0%    skip:20.8%\n[libx264 @ 0000020269c40940] mb B  I16..4:  0.3%  2.1%  0.0%  B16..8: 32.0%  2.9%  0.4%  direct: 2.7%  skip:59.6%  L0:58.0% L1:38.8% BI: 3.2%\n[libx264 @ 0000020269c40940] 8x8 transform intra:87.0% inter:81.2%\n[libx264 @ 0000020269c40940] direct mvs  spatial:95.5% temporal:4.5%\n[libx264 @ 0000020269c40940] coded y,uvDC,uvAC intra: 65.8% 63.5% 11.5% inter: 8.3% 19.7% 1.1%\n[libx264 @ 0000020269c40940] i16 v,h,dc,p:  7% 30%  4% 59%\n[libx264 @ 0000020269c40940] i8 v,h,dc,ddl,ddr,vr,hd,vl,hu: 12% 22% 31%  4%  6%  4%  8%  4%  8%\n[libx264 @ 0000020269c40940] i4 v,h,dc,ddl,ddr,vr,hd,vl,hu:  7% 19%  5%  5% 24% 10% 18%  5%  9%\n[libx264 @ 0000020269c40940] i8c dc,h,v,p: 39% 39% 16%  6%\n[libx264 @ 0000020269c40940] Weighted P-Frames: Y:0.0% UV:0.0%\n[libx264 @ 0000020269c40940] ref P L0: 34.0%  9.4% 25.9% 12.9% 17.9%\n[libx264 @ 0000020269c40940] ref B L0: 50.4% 29.1% 16.2%  4.2%\n[libx264 @ 0000020269c40940] ref B L1: 83.6% 16.4%\n[libx264 @ 0000020269c40940] kb/s:7460.31\n",
  "seconds": 10.405161142349243,
  "probe_out": {}
}